name processed_emg_signals
nRows=99
nColumns=7
 
endheader
time	RGLTMED	RRF	RADDLONG	RST	RTA	RGM
0.0	0.1559720419539499	0.0464350509222434	0.0857988863130632	0.0041295327401956	0.0753742762426403	0.4486889731242908
0.001	0.1634847069759404	0.0486329426821537	0.0902555404382151	0.0048561590839371	0.0784661755037863	0.4631576434337584
0.002	0.1709736548758052	0.0508516568775691	0.0947585035696055	0.0055845950429175	0.0815760213532451	0.4776346422342135
0.003	0.1784322982510202	0.0530899880415587	0.0993057144368957	0.0063144127611613	0.0847015373859294	0.4921089840440191
0.004	0.1858540516206171	0.0553467143660216	0.1038950776808336	0.0070451832042929	0.0878404053871191	0.5065696076204498
0.005	0.1932323426822341	0.0576205998167336	0.1085244671707899	0.0077764767996389	0.0909902680753883	0.5210053918231817
0.006	0.2005606235663238	0.059910396264668	0.1131917293561172	0.0085078640735013	0.0941487319204318	0.5354051716884787
0.007	0.2078323820474245	0.0622148456248306	0.117894686638274	0.0092389162833914	0.0973133700287329	0.5497577546693877
0.008	0.2150411526727098	0.064532681993835	0.1226311407518708	0.0099692060432208	0.1004817250901156	0.5640519369984275
0.009000000000000001	0.2221805277698865	0.0668626337778786	0.1273988761422713	0.0106983079395716	0.1036513123785826	0.5782765201303901
0.01	0.2292441682979138	0.0692034258027424	0.1321956633284677	0.0114257991373286	0.106819622800893	0.5924203272237497
0.011	0.2362258145064764	0.0715537813984195	0.1370192622404518	0.0121512599731442	0.1099841259863602	0.6064722196196006
0.012	0.2431192963726153	0.0739124244512528	0.1418674255201837	0.0128742745353544	0.1131422734112353	0.6204211132769157
0.013000000000000001	0.2499185437857564	0.0762780814169652	0.1467379017762788	0.0135944312291577	0.1162915015511793	0.634255995122452
0.014	0.25661759645547	0.0786494832887565	0.1516284387820158	0.0143113233260475	0.1194292350553905	0.6479659392726997
0.015	0.2632106135198314	0.0810253675149682	0.1565367866069181	0.0150245494965334	0.1225528899359868	0.6615401230844459
0.016	0.2696918828357313	0.0834044798616096	0.1614607006725711	0.0157337143254423	0.1256598767663629	0.6749678429888689
0.017	0.2760558299358784	0.0857855762153845	0.1663979447241818	0.0164384288090424	0.1287476038820981	0.6882385300625746
0.018000000000000002	0.2822970266390107	0.0881674243236432	0.171346293710131	0.0171383108334181	0.1318134805779793	0.7013417652876994
0.019	0.2884101993012198	0.0905488054683147	0.1763035365628067	0.0178329856334911	0.1348549202948613	0.7142672944528807
0.02	0.2943902366974086	0.092928516071285	0.1812674788744885	0.0185220862321973	0.1378693437903826	0.7270050426484712
0.021	0.3002321975226955	0.0953053692295931	0.1862359454627155	0.0192052538593169	0.1408541822880502	0.7395451283120896
0.022	0.305931317504261	0.0976781961790952	0.1912067828201192	0.0198821383494365	0.1438068805997429	0.751877876784713
0.023	0.3114830161142356	0.1000458476861428	0.1961778614438143	0.0205523985185534	0.146724900216839	0.7639938333414049
0.024	0.3168829028753636	0.1024071953668988	0.2011470780403601	0.0212157025189063	0.1496057223652923	0.775883775664958
0.025	0.3221267832518483	0.1047611329348215	0.2061123576021812	0.0218717281715704	0.1524468510198375	0.7875387257344296
0.026000000000000002	0.3272106641193509	0.1071065773763851	0.2110716553524019	0.0225201632766055	0.1552458158723142	0.798949961104294
0.027	0.3321307588098997	0.1094424700553671	0.2160229585545724	0.0231607059005314	0.1580001752491722	0.8101090255531618
0.028	0.3368834917293754	0.111767777745825	0.2209642881853008	0.0237930646410373	0.1607075189732534	0.8210077390834717
0.029	0.3414655025474774	0.1140814935940722	0.225893700467655	0.0244169588689396	0.1633654711655439	0.8316382072553544
0.03	0.3458736499618369	0.116382638009598	0.2308092882643327	0.0250321189473277	0.1659716929831678	0.8419928298396585
0.031	0.3501050150391933	0.118670259485495	0.2357091823306295	0.0256382864279367	0.1685238852905908	0.8520643087765144
0.032	0.3541569041383887	0.1209434353485849	0.240591552428339	0.0262352142247375	0.1710197912619764	0.8618456554279007
0.033	0.3580268514195068	0.1232012724395929	0.2454546083024403	0.0268226667647975	0.1734571989131101	0.8713301971154273
0.034	0.3617126209448141	0.1254429077235628	0.2502966005232228	0.0274004201165141	0.1758339435619315	0.8805115829385038
0.035	0.3652122083767204	0.1276675088309861	0.2551158211970889	0.0279682620954504	0.1781479102169984	0.8893837888728088
0.036000000000000004	0.3685238422790303	0.1298742745296246	0.2599106045489353	0.0285259923480779	0.180397035893919	0.897941122153751
0.037	0.3716459850284238	0.1320624351278888	0.264679327379514	0.0290734224137564	0.1825793118603053	0.9061782249547944
0.038	0.3745773333433388	0.1342312528097946	0.2694204094009831	0.0296103757653898	0.1846927858103866	0.914090077376089
0.039	0.3773168184382859	0.1363800219026504	0.2741323134545955	0.0301366878290575	0.1867355639707746	0.9216719997643256
0.04	0.3798636058117859	0.1385080690777606	0.2788135456147929	0.0306522059830868	0.1887058131390049	0.9289196543895836
0.041	0.3822170946760262	0.1406147534852879	0.2834626551848628	0.0311567895368379	0.1906017626565141	0.93582904650824
0.042	0.3843769170357569	0.1426994668240028	0.2880782345894854	0.0316503096896842	0.1924217063174877	0.9423965248427244
0.043000000000000003	0.3863429364232603	0.1447616333471618	0.2926589191698571	0.0321326494704829	0.1941640042149922	0.9486187815089828
0.044	0.3881152462956842	0.146800709806041	0.2972033868868526	0.032603703658015	0.1958270845258342	0.954492851421102
0.045	0.3896941681005217	0.1488161853328632	0.3017103579382936	0.0330633786828208	0.1974094452354974	0.9600161112004
0.046	0.3910802490149347	0.1508075812652667	0.3061785942959762	0.0335115925109968	0.1989096558046236	0.9651862776136751
0.047	0.3922742593641937	0.1527744509144173	0.3106068991687487	0.0339482745104158	0.2003263587782285	0.9700014055622715
0.048	0.3932771897241894	0.1547163792795335	0.3149941163983802	0.0343733653000314	0.2016582713388576	0.9744598856410084
0.049	0.3940902477126828	0.1566329827116225	0.3193391297948199	0.0347868165827799	0.2029041868046314	0.9785604412837146
0.05	0.3947148544742078	0.1585239085295407	0.3236408624182229	0.0351885909627816	0.2040629760729151	0.9823021255103732
0.051000000000000004	0.3951526408642369	0.1603888345916971	0.3278982758147234	0.0355786617475735	0.2051335890102188	0.9856843172896328
0.052000000000000005	0.3954054433389453	0.1622274688264115	0.3321103692131556	0.0359570127361363	0.2061150557886008	0.98870671752965
0.053	0.395475299558413	0.1640395487243046	0.3362761786895695	0.036323637993526	0.2070064881688043	0.9913693447088626
0.054	0.3953644437116889	0.1658248407955848	0.3403947763062279	0.0366785416129372	0.2078070807299214	0.9936725301576984
0.055	0.3950753015738489	0.1675831399952234	0.3444652692312684	0.0370217374659644	0.2085161120453791	0.9956169130023356
0.056	0.394610485306009	0.1693142691192148	0.3484867988446706	0.0373532489418492	0.2091329458047198	0.9972034347835012
0.057	0.3939727880107138	0.1710180781747681	0.3524585398357412	0.037673108676499	0.2096570318808542	0.99843333376606
0.058	0.3931651780558172	0.1726944437278058	0.3563796992964326	0.0379813582719985	0.2100879073427125	0.9993081389586076
0.059000000000000004	0.392190793180625	0.1743432682306364	0.3602495158148076	0.0382780480074605	0.2104251974136852	0.9998296638658488
0.06	0.3910529343985997	0.1759644793327466	0.3640672585722305	0.0385632365420337	0.2106686163766217	1.0
0.061	0.3897550597111229	0.1775580291774346	0.3678322264476263	0.0388369906109205	0.210817968426367	0.999821510180146
0.062	0.3883007776472924	0.1791238936868535	0.3715437471319738	0.0390993847152596	0.2108731484707459	0.9992968216493748
0.063	0.3866938406453216	0.1806620718381111	0.3752011762563615	0.0393505008067559	0.2108341428809219	0.998428819039051
0.064	0.3849381382919301	0.1821725849334246	0.37880389653602	0.0395904279678279	0.2107010301921329	0.9972206372079016
0.065	0.3830376904368079	0.1836554758673863	0.382351316932998	0.0398192620880957	0.2104739817563582	0.9956756539815972
0.066	0.3809966401999243	0.1851108083944397	0.3858428718391585	0.0400371055379885	0.2101532623486148	0.9937974828163686
0.067	0.3788192468896323	0.1865386663994996	0.3892780202807335	0.0402440668402596	0.2097392307291171	0.9915899654085776
0.068	0.3765098788490951	0.1879391531741286	0.3926562451457189	0.0404402603401805	0.2092323401634909	0.9890571642706736
0.069	0.3740730062482121	0.1893123907008394	0.3959770524349321	0.0406258058752495	0.2086331389033495	0.9862033552925742
0.07	0.3715131938371063	0.1906585189475251	0.3992399705379418	0.0408008284451779	0.2079422706291932	0.9830330203064264
0.07100000000000001	0.3688350936765479	0.1919776951740448	0.4024445495351209	0.0409654578829789	0.2071604748572254	0.9795508396714228
0.07200000000000001	0.3660434378596018	0.193270093252712	0.4055903605268531	0.0411198285279197	0.2062885873111869	0.9757616848945484
0.073	0.3631430312377762	0.1945359030038495	0.40867699499035	0.0412640789011413	0.2053275402598051	0.971670611301542
0.074	0.3601387441643131	0.195775329547361	0.4117040641636223	0.0413983513846234	0.2042783628201137	0.9672828507711052
0.075	0.3570355052659045	0.1969885926710749	0.4146711984557061	0.041522791904348	0.2031421812263448	0.962603804543274
0.076	0.3538382942535659	0.1981759262164326	0.417578046881276	0.0416375496184296	0.2019202190637499	0.9576390361107806
0.077	0.3505521347823143	0.1993375774826418	0.4204242765174036	0.0417427766110257	0.2006137974661539	0.9523942641994164
0.078	0.3471820873689762	0.2004738066505342	0.4232095719801825	0.0418386275928093	0.1992243352755375	0.9468753558408758
0.079	0.3437332423767698	0.2015848862275429	0.4259336349188019	0.0419252596086691	0.1977533491615484	0.941088319538414
0.08	0.3402107130749401	0.2026711005148095	0.428596183525274	0.0420028317531717	0.1962024536982394	0.935039298522891
0.081	0.3366196287818904	0.2037327450970825	0.4311969520581216	0.0420715048942402	0.1945733613949349	0.9287345640935672
0.082	0.332965128099777	0.2047701263554973	0.4337356903795676	0.0421314414053182	0.1928678826776118	0.9221805090358578
0.083	0.3292523522488872	0.2057835610031593	0.4362121635058619	0.0421828049062909	0.1910879258169302	0.9153836411063946
0.084	0.3254864385098407	0.2067733756428116	0.4386261511716539	0.0422257600133726	0.1892354967989063	0.9083505765750942
0.085	0.3216725137813279	0.2077399063457225	0.4409774474088429	0.0422604720980735	0.187312699134428	0.9010880338133268
0.08600000000000001	0.3178156882605794	0.2086834982502998	0.443265860141477	0.0422871070554161	0.1853217336039926	0.8936028269173435
0.08700000000000001	0.313921049252899	0.2096045051789361	0.4454912107980889	0.0423058310813815	0.1832648979342698	0.8859018593562838
0.088	0.3099936551157781	0.2105032892707843	0.4476533339427168	0.0423168104595906	0.1811445864030151	0.8779921176344893
0.089	0.3060385293424074	0.2113802206288232	0.449752076926837	0.0423202113572406	0.1789632893686705	0.8698806649589829
0.09	0.3020606547888422	0.2122356769795207	0.4517872995645622	0.0423161996302339	0.1767235927205816	0.8615746349045394
0.091	0.2980649680485422	0.2130700433435778	0.4537588738338894	0.0423049406375642	0.1744281772456752	0.8530812250714259
0.092	0.2940563539776411	0.213883711716923	0.45566668360706	0.0422865990651227	0.1720798179070963	0.8444076907339472
0.093	0.290039640373862	0.2146770807608504	0.4575106244126687	0.042261338759026	0.1696813830303085	0.835561338481034
0.094	0.2860195928119127	0.2154505555002715	0.4592906032316259	0.0422293225687811	0.1672358333920149	0.8265495198529448
0.095	0.2820009096388491	0.2162045470287974	0.461006538328904	0.0421907122003856	0.1647462212072794	0.8173796249803577
0.096	0.277988217133028	0.2169394722191453	0.4626583591225234	0.0421456680794977	0.1622156890103975	0.808059076232951
0.097	0.273986064831165	0.217655753437043	0.4642460060907527	0.0420943492247837	0.1596474684252355	0.798595321884943
0.098	0.2699989210278719	0.2183538182564951	0.4657694307187429	0.0420369131314663	0.1570448788210739	0.7889958298041173
